<svg width="138" height="101" viewBox="0 0 138 101" fill="none" xmlns="http://www.w3.org/2000/svg">
<path d="M137.144 89.676V11.7373C137.144 5.6135 130.309 0.603149 121.955 0.603149H15.633C7.27909 0.603149 0.444092 5.6135 0.444092 11.7373V89.676C0.444092 95.7998 7.27909 100.81 15.633 100.81H121.955C130.309 100.81 137.144 95.7998 137.144 89.676ZM42.2135 59.0572L61.1996 75.814L87.7801 50.7066L121.955 84.109H15.633L42.2135 59.0572Z" fill="#AAD9D4"/>
<path d="M42.2135 27.5424C42.2135 33.3305 37.5213 38.0227 31.7332 38.0227C25.9451 38.0227 21.2529 33.3305 21.2529 27.5424C21.2529 21.7543 25.9451 17.0621 31.7332 17.0621C37.5213 17.0621 42.2135 21.7543 42.2135 27.5424Z" fill="#EAEEF2"/>
</svg>
